<!-- public/google.svg -->
<svg xmlns="http://www.w3.org/2000/svg" width="24" height="24" viewBox="0 0 48 48">
  <path fill="#FFC107" d="M43.6 20.5h-2.1V20H24v8h11.3c-1.6 4.3-5.8 7-11.3 7-6.6 0-12-5.4-12-12s5.4-12 12-12c3.1 0 5.9 1.2 8 3.1l6-6C34.4 4.5 29.5 2 24 2 12.9 2 4 10.9 4 22s8.9 20 20 20c11 0 20-9 20-20 0-1.3-.1-2.7-.4-4z"/>
  <path fill="#FF3D00" d="M6.3 14.3l6.6 4.8C14.5 16 18.9 14 24 14c3.1 0 5.9 1.2 8 3.1l6-6C34.4 4.5 29.5 2 24 2 16.3 2 9.5 6.4 6.3 14.3z"/>
  <path fill="#4CAF50" d="M24 44c5.3 0 10.2-2 13.9-5.3l-6.4-5.3C29.5 35.9 26.9 37 24 37c-5.5 0-9.8-3.6-11.4-8.5l-6.6 5.1C9.4 39.6 16.1 44 24 44z"/>
  <path fill="#1976D2" d="M43.6 20.5h-2.1V20H24v8h11.3c-0.7 1.9-1.9 3.6-3.4 5l6.4 5.3c1.8-1.7 3.2-3.9 4.2-6.3 0.6-1.4 1.1-2.8 1.3-4.3 0.1-0.7 0.2-1.4 0.2-2.2 0-1.3-.1-2.7-.4-4z"/>
</svg>
